<?xml version="1.0" encoding="utf-8"?>
<!-- Generator: Adobe Illustrator 13.0.0, SVG Export Plug-In . SVG Version: 6.00 Build 14948)  -->
<!DOCTYPE svg PUBLIC "-//W3C//DTD SVG 1.1//EN" "http://www.w3.org/Graphics/SVG/1.1/DTD/svg11.dtd">
<svg version="1.1" id="Layer_1" xmlns="http://www.w3.org/2000/svg" xmlns:xlink="http://www.w3.org/1999/xlink" x="0px" y="0px"
	 width="800px" height="600px" viewBox="0 0 800 600" enable-background="new 0 0 800 600" xml:space="preserve">
<g>
	<path fill-rule="evenodd" clip-rule="evenodd" d="M433.105,196.938c-1.388-0.113-0.461-2.54-1.5-3c-2.163,2.213,1.053,5.41,0,9
		c-1.445-0.305-0.593-2.908-3-2.25c-49.236,0.015-98.789-0.289-147,0.75c1.256-1.244,0.597-4.403,0.75-6.75
		c10.75-0.25,21.057-0.057,30,1.5c1.34-0.211,1.539,0.709,0.75,0.75c-6.268-0.518-10.232,1.268-16.5,0.75
		c34.144,3.91,77.332-0.395,112.5,2.25c-9.458-3.292-22.604-2.896-35.25-3c7.599-1.115,4.014-2.914-3-2.25
		c11.862-2.292,43.873,0.494,57.75-0.75C430.354,193.782,433.854,191.525,433.105,196.938z"/>
	<path fill-rule="evenodd" clip-rule="evenodd" d="M346.855,196.188c4.292,1.563,11.735,0.476,15,0.75
		c7.646,0.642-2.112,0.935-7.5,0.75c-10.508-2.308-30.527,2.797-41.25,0.75c-1.96-0.374,2.071-0.606,3-0.75
		c2.069-0.321,5.413-1.103,9.75-0.75c-0.868-2.882-6.571-0.929-9.75-1.5c6.308-1.545,22.455-0.453,34.5,0
		c1.736,0.065,10.229,0.217,3,0.75C351.355,196.188,349.105,196.188,346.855,196.188z"/>
	<path fill-rule="evenodd" clip-rule="evenodd" d="M430.105,202.188c1.196,4.303,0.634,10.366,0.75,15.75c-49.751,0-99.5,0-149.25,0
		c0.413-5.087-0.881-11.881,0.75-15.75C331.984,203.054,381.517,199.868,430.105,202.188z"/>
	<path fill-rule="evenodd" clip-rule="evenodd" d="M431.605,208.938c2.034-1.004-0.975,9.451,3,9
		C430.754,220.759,431.621,212.445,431.605,208.938z"/>
	<path fill-rule="evenodd" clip-rule="evenodd" d="M355.855,218.688c-15.204,1.349-34.91,0.75-54,0.75c-4.011,0-17.021,0.979-18,0
		c0.588,0.588,15.088-0.75,18-0.75C319.643,218.688,339.001,218.688,355.855,218.688z"/>
	<path fill-rule="evenodd" clip-rule="evenodd" fill="#FFFFFF" d="M304.105,221.688c37.75,0,75.5,0,113.25,0
		c1.264,3.485,0.13,9.37,1.5,12.75c-38.5,0-77,0-115.5,0C302.479,231.778,301.379,223.17,304.105,221.688z M304.855,223.188
		c-1.01,0-1.453,7.857,0,7.5c-0.279,0.069,0.552-6.583,0.75-6.75c1.24-1.046,9.301,0.65,13.5,0.75c11.572,0.274,19.281-1.798,24,1.5
		c9.832-3.89,20.094-1.235,30-0.75c6.312,0.309,12.995-2.123,16.5,2.25c3.929-4.518,9.873-1.394,13.5-1.5
		c2.024-0.06,7.188-4.935,9,0c-3.542,0.458-5.542,2.458-6,6c-4.729-0.229-8.882,0.119-12.75,0.75c-16.75,0-33.5,0-50.25,0
		c-8.5,0-17,0-25.5,0c-4.25,0-8.5,0-12.75,0c-2.387,1.033,2.65,0.742,3.75,0.75c2.25,0,4.5,0,6.75,0c34,0,68,0,102,0
		c0.539-4.289-0.801-6.7-0.75-10.5C384.128,223.188,333.45,223.188,304.855,223.188z M305.605,232.188
		c34.022,0.522,65.742-1.258,99.75-0.75c0.83-2.669,1.575-5.424,4.5-6c-8.838,2.212-12.417-0.799-21.75,3
		c-2.207-2.158-6.302-2.85-9.75-3c-7.09-0.309-15.944-1.179-23.25-0.75c-4.474,0.263-8.519,2.301-12.75,2.25
		c-11.74-0.142-24.424-2.32-36.75-2.25C305.605,227.188,305.605,229.688,305.605,232.188z"/>
	<path fill-rule="evenodd" clip-rule="evenodd" fill="#FFFFFF" d="M285.355,222.438c1.992,0.008,4.283-0.283,5.25,0.75
		c0.504,3.754-0.695,5.805-0.75,9c-1.75,0-3.5,0-5.25,0C284.033,228.117,285.53,226.114,285.355,222.438z M287.605,231.438
		c3.106,0.106,0.781-5.219,1.5-7.5c-1,0-2,0-3,0C286.824,226.22,284.499,231.544,287.605,231.438z"/>
	<path fill-rule="evenodd" clip-rule="evenodd" fill="#FFFFFF" d="M281.605,224.688c0.322,3.322-1.25,4.75-3.75,5.25
		C273.137,227.62,277.668,219.963,281.605,224.688z M277.105,228.438c3.753,1.421,4.18-5.156,0.75-4.5
		C276.991,224.825,277.006,226.589,277.105,228.438z"/>
	<path fill-rule="evenodd" clip-rule="evenodd" fill="#FFFFFF" d="M294.355,223.188c2,0,4,0,6,0c0.302,3.552-1.339,5.161-0.75,9
		c-1.75,0-3.5,0-5.25,0C294.355,229.188,294.355,226.188,294.355,223.188z M295.105,230.688c1.25,0,2.5,0,3.75,0
		c0-2.25,0-4.5,0-6.75c-1.25,0-2.5,0-3.75,0C295.105,226.188,295.105,228.438,295.105,230.688z"/>
	<path fill-rule="evenodd" clip-rule="evenodd" d="M416.605,223.188c-0.051,3.8,1.289,6.211,0.75,10.5c-34,0-68,0-102,0
		c-2.25,0-4.5,0-6.75,0c-1.1-0.008-6.137,0.283-3.75-0.75c4.25,0,8.5,0,12.75,0c8.5,0,17,0,25.5,0c16.75,0,33.5,0,50.25,0
		c3.869-0.631,8.021-0.979,12.75-0.75c0.458-3.542,2.458-5.542,6-6c-1.812-4.935-6.976-0.06-9,0c-3.628,0.106-9.572-3.018-13.5,1.5
		c-3.505-4.373-10.188-1.941-16.5-2.25c-9.906-0.485-20.168-3.14-30,0.75c-4.719-3.298-12.428-1.226-24-1.5
		c-4.199-0.1-12.26-1.796-13.5-0.75c-0.198,0.167-1.029,6.819-0.75,6.75c-1.453,0.357-1.01-7.5,0-7.5
		C333.45,223.188,384.128,223.188,416.605,223.188z"/>
	<path fill-rule="evenodd" clip-rule="evenodd" d="M277.855,223.938c3.43-0.656,3.003,5.921-0.75,4.5
		C277.006,226.589,276.991,224.825,277.855,223.938z"/>
	<path fill-rule="evenodd" clip-rule="evenodd" d="M286.105,223.938c1,0,2,0,3,0c-0.719,2.281,1.606,7.606-1.5,7.5
		C284.499,231.544,286.824,226.22,286.105,223.938z"/>
	<path fill-rule="evenodd" clip-rule="evenodd" d="M295.105,223.938c1.25,0,2.5,0,3.75,0c0,2.25,0,4.5,0,6.75c-1.25,0-2.5,0-3.75,0
		C295.105,228.438,295.105,226.188,295.105,223.938z"/>
	<path fill-rule="evenodd" clip-rule="evenodd" fill="#FFFFFF" d="M430.855,223.938c3.849-0.099,6.012,1.488,6.75,4.5
		c-1.762,0.239-2.815,1.185-5.25,0.75C433.215,226.079,430.777,226.266,430.855,223.938z M434.605,228.438
		c0.008-0.991,1.314-0.686,1.5-1.5c-1.127-0.209-3.158-3.225-3.75-1.5C433.901,225.643,432.534,228.76,434.605,228.438z"/>
	<path fill-rule="evenodd" clip-rule="evenodd" d="M305.605,224.688c12.326-0.07,25.01,2.108,36.75,2.25
		c4.231,0.051,8.276-1.987,12.75-2.25c7.306-0.429,16.16,0.441,23.25,0.75c3.448,0.15,7.543,0.842,9.75,3
		c9.333-3.799,12.913-0.788,21.75-3c-2.925,0.576-3.67,3.331-4.5,6c-34.009-0.508-65.728,1.272-99.75,0.75
		C305.605,229.688,305.605,227.188,305.605,224.688z"/>
	<path fill-rule="evenodd" clip-rule="evenodd" d="M424.855,226.188c4.805,1.548,6.129,13.022,12,6.75
		C437.613,244.639,414.176,236.637,424.855,226.188z"/>
	<path fill-rule="evenodd" clip-rule="evenodd" fill="#FFFFFF" d="M301.105,235.188c1.5,0,3,0,4.5,0c0,2.75,0,5.5,0,8.25
		c-1.75,0-3.5,0-5.25,0C300.599,240.683,299.715,236.799,301.105,235.188z M301.105,242.688c4.364,1.114,3.892-2.608,3.75-6
		c-1.25,0-2.5,0-3.75,0C301.105,238.688,301.105,240.688,301.105,242.688z"/>
	<path fill-rule="evenodd" clip-rule="evenodd" fill="#FFFFFF" d="M313.855,235.188c2.614,0.386,1.1,4.9,1.5,7.5
		c-1.75,0-3.5,0-5.25,0c0-2.25,0-4.5,0-6.75C311.195,235.528,313.981,236.815,313.855,235.188z M310.855,241.938
		c1.25,0,2.5,0,3.75,0c0-1.75,0-3.5,0-5.25c-1.25,0-2.5,0-3.75,0C310.855,238.438,310.855,240.188,310.855,241.938z"/>
	<path fill-rule="evenodd" clip-rule="evenodd" d="M276.355,236.688c1,0,2,0,3,0c0,2.25,0,4.5,0,6.75
		c-2.12,0.62-1.943-1.057-3.75-0.75C275.44,240.273,276.932,239.515,276.355,236.688z"/>
	<path fill-rule="evenodd" clip-rule="evenodd" d="M301.105,236.688c1.25,0,2.5,0,3.75,0c0.142,3.392,0.614,7.114-3.75,6
		C301.105,240.688,301.105,238.688,301.105,236.688z"/>
	<path fill-rule="evenodd" clip-rule="evenodd" d="M310.855,236.688c1.25,0,2.5,0,3.75,0c0,1.75,0,3.5,0,5.25c-1.25,0-2.5,0-3.75,0
		C310.855,240.188,310.855,238.438,310.855,236.688z"/>
	<path fill-rule="evenodd" clip-rule="evenodd" fill="#FFFFFF" d="M416.605,238.188c1.482,7.261-10.386,5.882-6.75,0
		C411.473,236.971,413.745,240.348,416.605,238.188z M409.855,240.438c0.584,0.166,0.871,0.628,0.75,1.5
		c2.279,0.03,4.936,0.436,4.5-2.25C412.249,240.51,410.423,237.704,409.855,240.438z"/>
	<path fill-rule="evenodd" clip-rule="evenodd" d="M377.605,238.938c0.772,5.486,1.091,15.397,0.75,19.5
		c-4.998,1.748-3.121-3.379-4.5-5.25c-11.25,0-22.5,0-33.75,0c-3.161-0.411,0.364,5.864-3,5.25
		c-4.927-1.573-0.984-12.016-2.25-17.25c0-0.5,0-1,0-1.5C347.624,237.957,363.591,239.425,377.605,238.938z M359.605,249.438
		c4.75,0,9.5,0,14.25,0c1.39-1.61,0.506-5.494,0.75-8.25C365.975,241.842,356.796,237.347,359.605,249.438z M338.605,249.438
		c4.75,0,9.5,0,14.25,0c0-2.75,0-5.5,0-8.25c-5,0-10,0-15,0C338.099,243.944,337.215,247.828,338.605,249.438z M354.355,249.438
		c1.25,0,2.5,0,3.75,0c1.161-1.536,1.161-6.714,0-8.25c-1.25,0-2.5,0-3.75,0C354.355,243.938,354.355,246.688,354.355,249.438z"/>
	<path fill-rule="evenodd" clip-rule="evenodd" d="M415.105,239.688c0.436,2.686-2.221,2.28-4.5,2.25
		c0.121-0.872-0.166-1.334-0.75-1.5C410.423,237.704,412.249,240.51,415.105,239.688z"/>
	<path fill-rule="evenodd" clip-rule="evenodd" d="M421.105,239.688c0.638,0.138,0.707-0.292,0.75-0.75c0.5,0,1,0,1.5,0
		c-0.139,0.638,0.292,0.708,0.75,0.75c0,0.5,0,1,0,1.5c-0.639-0.138-0.708,0.292-0.75,0.75c-0.5,0-1,0-1.5,0
		c0.138-0.638-0.293-0.708-0.75-0.75C421.105,240.688,421.105,240.188,421.105,239.688z"/>
	<path fill-rule="evenodd" clip-rule="evenodd" fill="#FFFFFF" d="M374.605,241.188c-0.244,2.756,0.64,6.64-0.75,8.25
		c-4.75,0-9.5,0-14.25,0C356.796,237.347,365.975,241.842,374.605,241.188z M361.105,248.688c4,0,8,0,12,0c0-2.25,0-4.5,0-6.75
		c-4,0-8,0-12,0C361.105,244.188,361.105,246.438,361.105,248.688z"/>
	<path fill-rule="evenodd" clip-rule="evenodd" fill="#FFFFFF" d="M337.855,241.188c5,0,10,0,15,0c0,2.75,0,5.5,0,8.25
		c-4.75,0-9.5,0-14.25,0C337.215,247.828,338.099,243.944,337.855,241.188z M339.355,247.938c4.25,0,8.5,0,12.75,0c0-2,0-4,0-6
		c-4.25,0-8.5,0-12.75,0C339.355,243.938,339.355,245.938,339.355,247.938z"/>
	<path fill-rule="evenodd" clip-rule="evenodd" fill="#FFFFFF" d="M354.355,241.188c1.25,0,2.5,0,3.75,0
		c1.161,1.536,1.161,6.714,0,8.25c-1.25,0-2.5,0-3.75,0C354.355,246.688,354.355,243.938,354.355,241.188z M356.605,247.938
		c1.691-0.559,0.293-4.207,0.75-6c-0.75,0-1.5,0-2.25,0C355.723,243.821,353.647,248.396,356.605,247.938z"/>
	<path fill-rule="evenodd" clip-rule="evenodd" d="M339.355,241.938c4.25,0,8.5,0,12.75,0c0,2,0,4,0,6c-4.25,0-8.5,0-12.75,0
		C339.355,245.938,339.355,243.938,339.355,241.938z"/>
	<path fill-rule="evenodd" clip-rule="evenodd" d="M355.105,241.938c0.75,0,1.5,0,2.25,0c-0.457,1.793,0.941,5.441-0.75,6
		C353.647,248.396,355.723,243.821,355.105,241.938z"/>
	<path fill-rule="evenodd" clip-rule="evenodd" d="M361.105,241.938c4,0,8,0,12,0c0,2.25,0,4.5,0,6.75c-4,0-8,0-12,0
		C361.105,246.438,361.105,244.188,361.105,241.938z"/>
	<path fill-rule="evenodd" clip-rule="evenodd" fill="#FFFFFF" d="M313.105,246.438c6.5,0,13,0,19.5,0c0,2.25,0,4.5,0,6.75
		c-6.5,0-13,0-19.5,0C313.105,250.938,313.105,248.688,313.105,246.438z M313.855,251.688c4.594,1.656,12.181,0.318,18,0.75
		c0-1.25,0-2.5,0-3.75c-4.508-1.742-12.244-0.256-18-0.75C313.855,249.188,313.855,250.438,313.855,251.688z"/>
	<path fill-rule="evenodd" clip-rule="evenodd" fill="#FFFFFF" d="M312.355,247.938c0,1.25,0,2.5,0,3.75c-4.75,0-9.5,0-14.25,0
		C296.486,243.973,308.961,249.417,312.355,247.938z M298.855,250.188c2.375,0.851,11.586,2.104,12.75-0.75
		C309.229,248.588,300.019,247.334,298.855,250.188z"/>
	<path fill-rule="evenodd" clip-rule="evenodd" d="M313.855,247.938c5.756,0.494,13.492-0.992,18,0.75c0,1.25,0,2.5,0,3.75
		c-5.819-0.432-13.406,0.906-18-0.75C313.855,250.438,313.855,249.188,313.855,247.938z"/>
	<path fill-rule="evenodd" clip-rule="evenodd" fill="#FFFFFF" d="M400.105,247.938c4.75,0,9.5,0,14.25,0c0,1.5,0,3,0,4.5
		c-4.75,0-9.5,0-14.25,0C400.105,250.938,400.105,249.438,400.105,247.938z M400.855,250.188c2.375,0.851,11.586,2.104,12.75-0.75
		C411.229,248.588,402.019,247.334,400.855,250.188z"/>
	<path fill-rule="evenodd" clip-rule="evenodd" d="M311.605,249.438c-1.164,2.854-10.375,1.601-12.75,0.75
		C300.019,247.334,309.229,248.588,311.605,249.438z"/>
	<path fill-rule="evenodd" clip-rule="evenodd" d="M413.605,249.438c-1.164,2.854-10.375,1.601-12.75,0.75
		C402.019,247.334,411.229,248.588,413.605,249.438z"/>
	<path fill-rule="evenodd" clip-rule="evenodd" d="M433.855,250.938c4.519-0.953,9.062,1.368,9,7.5c-0.11,10.813-16.56,9.938-15-1.5
		C428.096,255.171,428.767,252.012,433.855,250.938z"/>
	<path fill-rule="evenodd" clip-rule="evenodd" fill="#FFFFFF" d="M353.605,256.938c0.502,3.5-9.975,3.185-10.5,0.75
		C343.577,254.885,351.936,256.054,353.605,256.938z M352.105,256.938c-2.525,0.475-6.966-0.966-8.25,0.75
		C346.38,257.213,350.821,258.655,352.105,256.938z"/>
	<path fill-rule="evenodd" clip-rule="evenodd" d="M343.855,257.688c1.284-1.716,5.725-0.275,8.25-0.75
		C350.821,258.655,346.38,257.213,343.855,257.688z"/>
	<path fill-rule="evenodd" clip-rule="evenodd" fill="#FFFFFF" d="M334.105,262.938c1.793,0.457,5.441-0.941,6,0.75
		C340.473,266.388,332.932,265.851,334.105,262.938z"/>
	<path fill-rule="evenodd" clip-rule="evenodd" d="M268.105,264.438c1.593-0.316,0.364,8.616,0.75,12
		C267.262,276.754,268.491,267.823,268.105,264.438z"/>
	<path fill-rule="evenodd" clip-rule="evenodd" d="M315.355,271.188c18.07,14.169,8.239,46.366-15.75,46.5
		c-33.235,0.186-33.403-51.386-0.75-51.75C304.183,265.879,310.619,267.475,315.355,271.188z M301.105,288.438c1.5,0,3,0,4.5,0
		c-0.233-2.517-2.509-2.991-4.5-3.75C301.105,285.938,301.105,287.188,301.105,288.438z"/>
	<path fill-rule="evenodd" clip-rule="evenodd" d="M433.105,308.688c-14.601,18.244-41.904,4.261-44.25-12
		c-5.687-39.402,56.584-39.611,49.5,0.75C437.783,300.694,435.669,305.484,433.105,308.688z M409.855,288.438
		c0.303-1.447,3.435-0.065,2.25-3c-1.319,0.432-4.407-0.906-4.5,0.75C409.335,285.959,408.438,288.355,409.855,288.438z"/>
	<path fill-rule="evenodd" clip-rule="evenodd" d="M340.855,268.938c-0.313,5.563,0.925,9.575,1.5,14.25c9,0,18,0,27,0
		c3.07-3.93-0.917-14.917,6.75-14.25c3.452,5.798,0.536,17.965,1.5,26.25c-14.25,0-28.5,0-42.75,0c0-8.75,0-17.5,0-26.25
		C336.855,268.938,338.855,268.938,340.855,268.938z M340.105,287.688c1.897,3.928,9.708,2.25,15.75,2.25
		c6.17,0,14.495,1.686,16.5-2.25C366.442,284.005,346.018,284.005,340.105,287.688z"/>
	<path fill-rule="evenodd" clip-rule="evenodd" fill="#FFFFFF" d="M352.855,271.188c2.25,0,4.5,0,6.75,0c0,1.75,0,3.5,0,5.25
		c-2.25,0-4.5,0-6.75,0C352.855,274.688,352.855,272.938,352.855,271.188z M353.605,275.688c1.75,0,3.5,0,5.25,0
		c0-1.25,0-2.5,0-3.75c-1.75,0-3.5,0-5.25,0C353.605,273.188,353.605,274.438,353.605,275.688z"/>
	<path fill-rule="evenodd" clip-rule="evenodd" d="M362.605,277.188c-1.033-0.967-0.742-3.258-0.75-5.25
		c0.872,0.122,1.334-0.166,1.5-0.75c2.356-0.355,3.064,0.936,3.75,2.25C367.337,276.42,365.664,277.498,362.605,277.188z"/>
	<path fill-rule="evenodd" clip-rule="evenodd" d="M353.605,271.938c1.75,0,3.5,0,5.25,0c0,1.25,0,2.5,0,3.75c-1.75,0-3.5,0-5.25,0
		C353.605,274.438,353.605,273.188,353.605,271.938z"/>
	<path fill-rule="evenodd" clip-rule="evenodd" d="M268.855,283.188c1.607-0.083,0.354,9.128,0.75,12.75
		C267.998,296.021,269.251,286.811,268.855,283.188z"/>
	<path fill-rule="evenodd" clip-rule="evenodd" fill="#FFFFFF" d="M372.355,287.688c-2.005,3.936-10.33,2.25-16.5,2.25
		c-6.042,0-13.853,1.678-15.75-2.25C346.018,284.005,366.442,284.005,372.355,287.688z M371.605,288.438
		c-7.286-3.464-20.974-0.526-30.75-1.5C348.141,290.403,361.829,287.465,371.605,288.438z"/>
	<path fill-rule="evenodd" clip-rule="evenodd" d="M340.855,286.938c9.776,0.974,23.464-1.964,30.75,1.5
		C361.829,287.465,348.141,290.403,340.855,286.938z"/>
	<path fill-rule="evenodd" clip-rule="evenodd" fill="#FFFFFF" d="M340.105,298.938c0.718,2.702-3.237,1.33-3.75,0.75
		C335.993,298.219,339.793,297.273,340.105,298.938z"/>
	<path fill-rule="evenodd" clip-rule="evenodd" fill="#FFFFFF" d="M349.105,298.938c0.486,2.416-7.986,2.416-7.5,0
		C342.74,298.023,348.065,297.466,349.105,298.938z"/>
	<path fill-rule="evenodd" clip-rule="evenodd" fill="#FFFFFF" d="M343.855,305.688c1.5,0,3,0,4.5,0
		c1.256,1.244,0.597,4.403,0.75,6.75c-2,0-4,0-6,0C343.138,308.735,343.258,307.352,343.855,305.688z M343.855,309.438
		c-0.343,2.343,1.603,2.397,3.75,2.25c-0.128-1.122,0.268-2.768-0.75-3C346.716,309.799,345.042,309.376,343.855,309.438z"/>
	<path fill-rule="evenodd" clip-rule="evenodd" fill="#FFFFFF" d="M349.855,305.688c2.347,0.153,5.506-0.506,6.75,0.75
		c-0.239,1.761-1.185,2.815-0.75,5.25c-2,0-4,0-6,0C349.855,309.688,349.855,307.688,349.855,305.688z M350.605,310.938
		c1.546-0.454,5.21,1.21,4.5-1.5c-1.5,0-3,0-4.5,0C350.605,309.938,350.605,310.438,350.605,310.938z"/>
	<path fill-rule="evenodd" clip-rule="evenodd" fill="#FFFFFF" d="M336.355,306.438c1.75,0,3.5,0,5.25,0
		c-0.089,2.16,0.41,4.909-0.75,6c-1.992-0.008-4.283,0.283-5.25-0.75C335.003,309.087,336.722,308.806,336.355,306.438z
		 M337.105,310.938c1.417-0.333,4.52,1.021,3.75-1.5c-1.25,0-2.5,0-3.75,0C337.105,309.938,337.105,310.438,337.105,310.938z"/>
	<path fill-rule="evenodd" clip-rule="evenodd" d="M346.855,308.688c1.018,0.232,0.622,1.878,0.75,3
		c-2.147,0.147-4.093,0.093-3.75-2.25C345.042,309.376,346.716,309.799,346.855,308.688z"/>
	<path fill-rule="evenodd" clip-rule="evenodd" d="M369.355,308.688c0.879,0.121,0.633,1.367,0.75,2.25c-1.5,0-3,0-4.5,0
		C364.448,307.782,369.486,310.819,369.355,308.688z"/>
	<path fill-rule="evenodd" clip-rule="evenodd" fill="#FFFFFF" d="M389.605,308.688c0,4.25,0,8.5,0,12.75c-2.5,0-5,0-7.5,0
		c0-2.75,0-5.5,0-8.25c0.967-1.033,3.258-0.742,5.25-0.75c-0.18-2.32-6.172,1.173-5.25-2.25
		C381.999,307.082,387.324,309.407,389.605,308.688z M383.605,310.938c1.546-0.454,5.21,1.21,4.5-1.5c-1.5,0-3,0-4.5,0
		C383.605,309.938,383.605,310.438,383.605,310.938z M383.605,320.688c1.546-0.454,5.21,1.21,4.5-1.5
		c0.131-2.131-4.907,0.906-3.75-2.25c1.739-0.239,2.879,0.12,3.75,0.75c0-1.5,0-3,0-4.5c-2.594-0.609-3.167,1.4-4.5,0
		C383.605,315.688,383.605,318.188,383.605,320.688z"/>
	<path fill-rule="evenodd" clip-rule="evenodd" d="M337.105,309.438c1.25,0,2.5,0,3.75,0c0.77,2.521-2.333,1.167-3.75,1.5
		C337.105,310.438,337.105,309.938,337.105,309.438z"/>
	<path fill-rule="evenodd" clip-rule="evenodd" d="M350.605,309.438c1.5,0,3,0,4.5,0c0.71,2.71-2.954,1.046-4.5,1.5
		C350.605,310.438,350.605,309.938,350.605,309.438z"/>
	<path fill-rule="evenodd" clip-rule="evenodd" d="M358.855,309.438c0.513,1.487,4.468-0.468,3.75,2.25
		C360.624,311.669,357.905,312.388,358.855,309.438z"/>
	<path fill-rule="evenodd" clip-rule="evenodd" d="M383.605,309.438c1.5,0,3,0,4.5,0c0.71,2.71-2.954,1.046-4.5,1.5
		C383.605,310.438,383.605,309.938,383.605,309.438z"/>
	<path fill-rule="evenodd" clip-rule="evenodd" d="M383.605,313.188c1.333,1.4,1.906-0.609,4.5,0c0,1.5,0,3,0,4.5
		c-0.871-0.63-2.011-0.989-3.75-0.75c-1.157,3.156,3.881,0.119,3.75,2.25c0.71,2.71-2.954,1.046-4.5,1.5
		C383.605,318.188,383.605,315.688,383.605,313.188z"/>
	<path fill-rule="evenodd" clip-rule="evenodd" d="M324.355,314.688c1.75,0,3.5,0,5.25,0c0,1.75,0,3.5,0,5.25c-1.75,0-3.5,0-5.25,0
		C324.355,318.188,324.355,316.438,324.355,314.688z"/>
	<path fill-rule="evenodd" clip-rule="evenodd" fill="#FFFFFF" d="M379.105,316.938c-11.797,2.515-33.946,2.47-45.75,0
		C345.133,314.442,367.327,314.442,379.105,316.938z M334.855,317.688c14.014-0.986,31.981,1.981,43.5-1.5c-14.5,0-29,0-43.5,0
		C334.855,316.688,334.855,317.188,334.855,317.688z"/>
	<path fill-rule="evenodd" clip-rule="evenodd" d="M334.855,316.188c14.5,0,29,0,43.5,0c-11.519,3.481-29.486,0.514-43.5,1.5
		C334.855,317.188,334.855,316.688,334.855,316.188z"/>
	<path fill-rule="evenodd" clip-rule="evenodd" d="M267.355,248.688c2.952-9.048,1.786-22.214,6.75-29.25
		c-2.364,7.136-1.826,17.174-3,25.5c19,1.749,41.25,0.25,61.5,0.75c1.39-1.61,0.506-5.494,0.75-8.25c8.25,0,16.5,0,24.75,0
		c-6.504,1.746-16.247,0.253-24,0.75c0.939,7.781-1.588,15.787,0,21.75c1.25,0,2.5,0,3.75,0c3.422,0.922-0.07-5.07,2.25-5.25
		c10.5,0,21,0,31.5,0c2.424,1.826,1.106,7.394,7.5,5.25c2.292-4.81-0.966-10.521,0-16.5c3.991,3.878,20.558,2.25,32.25,2.25
		c10.249,0,20.501,0,29.25,0c0.688-7.265-1.232-18.212-1.5-27c5.374,5.875,3.713,18.787,5.25,28.5
		c-12.819,0.267-24.861-3.002-29.25,6c-11,0-22,0-33,0c-2.166,20.334-1.344,43.656-1.5,66c-14.391,2.351-33.617,0.665-48.75-0.75
		c0-21.25,0-42.5,0-63.75c-9.132-3.371-20.502,1.808-32.25-0.75c-5.068-1.104-7.953-6.719-11.25-7.5
		c-2.998-0.71-18.249-0.292-19.5,0.75c-2.928,2.44,1.164,6.295-0.75,11.25C268.61,257.131,265.799,252.65,267.355,248.688z
		 M313.105,253.188c6.5,0,13,0,19.5,0c0-2.25,0-4.5,0-6.75c-6.5,0-13,0-19.5,0C313.105,248.688,313.105,250.938,313.105,253.188z
		 M298.105,251.688c4.75,0,9.5,0,14.25,0c0-1.25,0-2.5,0-3.75C308.961,249.417,296.486,243.973,298.105,251.688z M400.105,252.438
		c4.75,0,9.5,0,14.25,0c0-1.5,0-3,0-4.5c-4.75,0-9.5,0-14.25,0C400.105,249.438,400.105,250.938,400.105,252.438z M343.105,257.688
		c0.525,2.435,11.002,2.75,10.5-0.75C351.936,256.054,343.577,254.885,343.105,257.688z M340.105,263.688
		c-0.559-1.691-4.207-0.293-6-0.75C332.932,265.851,340.473,266.388,340.105,263.688z M368.605,281.688c-8.5,0-17,0-25.5,0
		c-0.242-4.758-1.727-8.273-1.5-13.5c-2.75,0-5.5,0-8.25,0c0.47,9.279-0.96,20.46,0.75,28.5c13,0,26,0,39,0
		c-0.719,3.219,0.531,4.469,3.75,3.75c2.614-6.516,1.105-21.946,1.5-33C367.551,264.635,371.479,276.562,368.605,281.688z
		 M366.355,277.938c2.034-1.318,2.034-6.182,0-7.5C358.78,268.613,358.449,279.887,366.355,277.938z M352.855,276.438
		c2.25,0,4.5,0,6.75,0c0-1.75,0-3.5,0-5.25c-2.25,0-4.5,0-6.75,0C352.855,272.938,352.855,274.688,352.855,276.438z
		 M351.355,300.438c2.147,0.147,4.093,0.093,3.75-2.25c-0.871-0.629-2.011-0.989-3.75-0.75
		C351.355,298.438,351.355,299.438,351.355,300.438z M357.355,298.188c-0.033,1.032,0.353,1.647,0.75,2.25
		c6.745-1.448,11.618,1.838,13.5-2.25C364.917,299.449,362.822,296.354,357.355,298.188z M336.355,299.688
		c0.513,0.58,4.468,1.952,3.75-0.75C339.793,297.273,335.993,298.219,336.355,299.688z M341.605,298.938
		c-0.486,2.416,7.986,2.416,7.5,0C348.065,297.466,342.74,298.023,341.605,298.938z M343.105,312.438c2,0,4,0,6,0
		c-0.153-2.347,0.506-5.506-0.75-6.75c-1.5,0-3,0-4.5,0C343.258,307.352,343.138,308.735,343.105,312.438z M349.855,311.688
		c2,0,4,0,6,0c-0.435-2.435,0.511-3.489,0.75-5.25c-1.244-1.256-4.403-0.597-6.75-0.75
		C349.855,307.688,349.855,309.688,349.855,311.688z M357.355,312.438c2,0,4,0,6,0c-0.328-2.578,0.296-4.204,0.75-6
		c-1.244-1.256-4.403-0.597-6.75-0.75C357.355,307.938,357.355,310.188,357.355,312.438z M364.855,311.688
		c1.567,1.479,4.98,0.573,6.75,0c-0.577-2.826,0.915-3.585,0.75-6C367.058,304.892,364.409,306.742,364.855,311.688z
		 M373.105,306.438c-1.166,2.666,2.547,0.453,2.25,2.25c-1,0-2,0-3,0c0,1.25,0,2.5,0,3.75c1.75,0,3.5,0,5.25,0
		c0.378-3.423-1.302-4.251,0-6.75C375.311,305.145,375.399,306.982,373.105,306.438z M335.605,311.688
		c0.967,1.033,3.258,0.742,5.25,0.75c1.16-1.091,0.661-3.84,0.75-6c-1.75,0-3.5,0-5.25,0
		C336.722,308.806,335.003,309.087,335.605,311.688z M333.355,316.938c11.804,2.47,33.953,2.515,45.75,0
		C367.327,314.442,345.133,314.442,333.355,316.938z"/>
	<path fill-rule="evenodd" clip-rule="evenodd" fill="#FFFFFF" d="M435.355,216.438c0.896,2.854,6.755,0.745,7.5,3.75
		c5.689,31.934,0.265,66.74,0.75,102c-55.229,3.379-120.521,6.562-174.75,0c0.175-35.072-5.707-71.853,2.25-102
		c0.312-2.688,5.783-0.217,6-3c1.438-7.062,0.431-16.569,2.25-23.25c42.766-4.145,107.221,2.951,148.5-0.75
		c0.867-0.078,1.687-0.922,2.25-0.75C438.767,195.079,433.669,209.937,435.355,216.438z M428.605,193.938
		c-13.878,1.244-45.889-1.542-57.75,0.75c7.014-0.664,10.599,1.135,3,2.25c12.646,0.104,25.792-0.292,35.25,3
		c-35.169-2.645-78.356,1.66-112.5-2.25c6.268,0.518,10.232-1.268,16.5-0.75c0.789-0.041,0.59-0.961-0.75-0.75
		c-8.943-1.557-19.25-1.75-30-1.5c-0.153,2.347,0.506,5.506-0.75,6.75c48.211-1.039,97.764-0.735,147-0.75
		c2.407-0.658,1.555,1.945,3,2.25c1.053-3.59-2.163-6.787,0-9c1.039,0.46,0.112,2.887,1.5,3
		C433.854,191.525,430.354,193.782,428.605,193.938z M353.605,196.188c7.229-0.533-1.264-0.685-3-0.75
		c-12.045-0.453-28.192-1.545-34.5,0c3.179,0.571,8.882-1.382,9.75,1.5c-4.337-0.353-7.681,0.429-9.75,0.75
		c-0.929,0.144-4.96,0.376-3,0.75c10.723,2.047,30.742-3.058,41.25-0.75c5.388,0.185,15.146-0.108,7.5-0.75
		c-3.265-0.274-10.708,0.813-15-0.75C349.105,196.188,351.355,196.188,353.605,196.188z M282.355,202.188
		c-1.631,3.869-0.337,10.663-0.75,15.75c49.75,0,99.5,0,149.25,0c-0.116-5.384,0.446-11.447-0.75-15.75
		C381.517,199.868,331.984,203.054,282.355,202.188z M434.605,217.938c-3.975,0.451-0.966-10.004-3-9
		C431.621,212.445,430.754,220.759,434.605,217.938z M301.855,218.688c-2.912,0-17.412,1.338-18,0.75c0.979,0.979,13.989,0,18,0
		c19.09,0,38.796,0.599,54-0.75C339.001,218.688,319.643,218.688,301.855,218.688z M268.105,258.438
		c1.914-4.955-2.178-8.81,0.75-11.25c1.251-1.042,16.502-1.46,19.5-0.75c3.297,0.781,6.182,6.396,11.25,7.5
		c11.748,2.558,23.118-2.621,32.25,0.75c0,21.25,0,42.5,0,63.75c15.133,1.415,34.359,3.101,48.75,0.75
		c0.156-22.344-0.666-45.666,1.5-66c11,0,22,0,33,0c4.389-9.002,16.431-5.733,29.25-6c-1.537-9.713,0.124-22.625-5.25-28.5
		c0.268,8.788,2.188,19.735,1.5,27c-8.749,0-19.001,0-29.25,0c-11.693,0-28.26,1.628-32.25-2.25c-0.966,5.979,2.292,11.69,0,16.5
		c-6.394,2.144-5.076-3.424-7.5-5.25c-10.5,0-21,0-31.5,0c-2.32,0.18,1.172,6.172-2.25,5.25c-1.25,0-2.5,0-3.75,0
		c-1.588-5.963,0.939-13.969,0-21.75c7.753-0.497,17.496,0.996,24-0.75c-8.25,0-16.5,0-24.75,0c-0.244,2.756,0.64,6.64-0.75,8.25
		c-20.25-0.5-42.5,0.999-61.5-0.75c1.174-8.326,0.636-18.364,3-25.5c-4.964,7.036-3.798,20.202-6.75,29.25
		C265.799,252.65,268.61,257.131,268.105,258.438z M284.605,263.688c5.047-8.467-8.125-16.882-13.5-9
		c-6.588,9.663,3.212,45.879,0,60c1.071-0.612,7.12-3.034,7.5,2.25c-0.546,5.47-7.406-0.185-6.75,3.75
		c50.701,6.478,118.166,2.04,169.5,0.75c-1.067-9.572,2.168-18.824,0-27c-2.245,14.186-10.294,23.718-23.25,25.5
		c-24.672,3.395-39.314-16.864-33-38.25c7.883-26.702,55.381-25.361,57,7.5c1.328-5.122,0.536-16.966,0.75-25.5
		c-2.741,0.561-4.08,3.922-8.25,3.75c-6.675-0.275-7.213-9.727-9-5.25c-5.619-13.769,15.162-17.618,18-6.75c0-2.5-0.001-5,0-7.5
		c-8.058,1.542-14.323-2.101-21,0c-3.471,1.092-4.568,5.196-7.5,6c-10.575,2.9-19.744-1.17-33,0.75c0.58,22.83-1.12,43.38-0.75,66
		c-16.11,1.55-35.362,0.588-50.25-1.5c0.44-21.94-0.544-42.456-0.75-63.75c-12.326-3.289-22.977,2.109-33-0.75
		c-3.568-1.018-5.643-5.879-9-6.75c-6.457-1.674-12.667,1.227-19.5,0c0.479,2.771-0.971,7.471,0.75,9
		c-0.356-5.404,8.784-5.732,6.75-8.25c23.67-1.586,5.073,32.395-6,13.5C272.968,268.291,282.476,267.261,284.605,263.688z
		 M390.355,308.688c12.422,16.213,45.857,13.503,50.25-11.25c2.425-13.662-5.974-27.137-15-31.5
		C398.558,252.864,373.013,286.056,390.355,308.688z M274.105,220.938c-0.248,8.252-1.811,15.189-1.5,24
		c2.036-0.464,5.952,0.952,6.75-0.75c-6.572,2.777-6.572-11.777,0-9c1.725,1.775,0.269,6.731,0.75,9.75c17.25,0,34.5,0,51.75,0
		c-0.11-3.36,0.081-6.419,1.5-8.25c15.311,0.439,32.417-0.917,46.5,0.75c-0.249,2.999,1.337,4.163,0.75,7.5
		c19.493-0.493,37.627-1.037,59.25-0.75c-0.035-8.465-1.558-15.443-1.5-24C384.171,220.611,324.607,219.294,274.105,220.938z
		 M275.605,242.688c1.807-0.307,1.63,1.37,3.75,0.75c0-2.25,0-4.5,0-6.75c-1,0-2,0-3,0
		C276.932,239.515,275.44,240.273,275.605,242.688z M334.855,239.688c0,0.5,0,1,0,1.5c1.266,5.234-2.677,15.677,2.25,17.25
		c3.364,0.614-0.161-5.661,3-5.25c11.25,0,22.5,0,33.75,0c1.379,1.871-0.498,6.998,4.5,5.25c0.341-4.103,0.022-14.014-0.75-19.5
		C363.591,239.425,347.624,237.957,334.855,239.688z M427.855,256.938c-1.56,11.438,14.89,12.313,15,1.5
		c0.062-6.132-4.481-8.453-9-7.5C428.767,252.012,428.096,255.171,427.855,256.938z M268.855,276.438
		c-0.386-3.384,0.843-12.316-0.75-12C268.491,267.823,267.262,276.754,268.855,276.438z M269.605,295.938
		c-0.396-3.622,0.857-12.833-0.75-12.75C269.251,286.811,267.998,296.021,269.605,295.938z M273.355,316.188
		c-0.537-1.216,3.537-1.216,3,0c-0.168,0.582-0.021,1.479-0.75,1.5c-0.085-0.915-0.224-1.775-1.5-1.5c0.753,2.116,1.099,1.88,1.5,3
		c0.32-1.431,2.143-1.357,1.5-3.75C276.427,313.819,271.01,315.055,273.355,316.188z"/>
	<path fill-rule="evenodd" clip-rule="evenodd" d="M270.355,262.188c11.073,18.895,29.67-15.086,6-13.5
		c2.034,2.518-7.106,2.846-6.75,8.25c-1.721-1.529-0.271-6.229-0.75-9c6.833,1.227,13.043-1.674,19.5,0
		c3.357,0.871,5.432,5.732,9,6.75c10.023,2.859,20.674-2.539,33,0.75c0.206,21.294,1.19,41.81,0.75,63.75
		c14.888,2.088,34.14,3.05,50.25,1.5c-0.37-22.62,1.33-43.17,0.75-66c13.257-1.92,22.425,2.15,33-0.75
		c2.932-0.804,4.029-4.908,7.5-6c6.677-2.101,12.942,1.542,21,0c-0.001,2.5,0,5,0,7.5c-2.838-10.868-23.619-7.019-18,6.75
		c1.787-4.477,2.325,4.975,9,5.25c4.17,0.172,5.509-3.189,8.25-3.75c-0.214,8.534,0.578,20.378-0.75,25.5
		c-1.619-32.861-49.117-34.202-57-7.5c-6.314,21.386,8.329,41.645,33,38.25c12.956-1.782,21.005-11.314,23.25-25.5
		c2.168,8.176-1.067,17.428,0,27c-51.335,1.29-118.799,5.728-169.5-0.75c-0.656-3.935,6.204,1.72,6.75-3.75
		c-0.38-5.284-6.429-2.862-7.5-2.25c3.212-14.121-6.588-50.337,0-60c5.375-7.882,18.547,0.533,13.5,9
		C282.476,267.261,272.968,268.291,270.355,262.188z M382.105,310.188c-0.922,3.423,5.07-0.07,5.25,2.25
		c-1.992,0.008-4.283-0.283-5.25,0.75c0,2.75,0,5.5,0,8.25c2.5,0,5,0,7.5,0c0-4.25,0-8.5,0-12.75
		C387.324,309.407,381.999,307.082,382.105,310.188z M286.105,317.688c25.779,13.137,49.042-12.996,41.25-36
		c-5.654-16.694-28.853-24.404-44.25-12.75C268.041,280.34,266.88,307.892,286.105,317.688z M323.605,321.438c2.25,0,4.5,0,6.75,0
		c0-2.5,0-5,0-7.5c-1.318-0.432-4.407,0.906-4.5-0.75c0.696-1.804,5.454,0.454,4.5-3c-0.263-2.487-4.323-1.177-6.75-1.5
		C323.605,312.938,323.605,317.188,323.605,321.438z"/>
	<path fill-rule="evenodd" clip-rule="evenodd" fill="#FFFFFF" d="M427.855,224.688c-3.972,3.676,5.375,3.108,3.75,9
		c4.515,1.015,4.271-2.729,6.75-3.75c0,2,0,4,0,6C429.741,248.466,411.499,228.602,427.855,224.688z M436.855,232.938
		c-5.871,6.272-7.195-5.202-12-6.75C414.176,236.637,437.613,244.639,436.855,232.938z"/>
	<path fill-rule="evenodd" clip-rule="evenodd" d="M438.355,220.188c-0.058,8.557,1.465,15.535,1.5,24
		c-21.623-0.287-39.758,0.257-59.25,0.75c0.587-3.337-0.999-4.501-0.75-7.5c-14.083-1.667-31.189-0.311-46.5-0.75
		c-1.419,1.831-1.61,4.89-1.5,8.25c-17.25,0-34.5,0-51.75,0c-0.481-3.019,0.975-7.975-0.75-9.75c-6.572-2.777-6.572,11.777,0,9
		c-0.798,1.702-4.714,0.286-6.75,0.75c-0.311-8.811,1.252-15.748,1.5-24C324.607,219.294,384.171,220.611,438.355,220.188z
		 M303.355,234.438c38.5,0,77,0,115.5,0c-1.37-3.38-0.236-9.265-1.5-12.75c-37.75,0-75.5,0-113.25,0
		C301.379,223.17,302.479,231.778,303.355,234.438z M284.605,232.188c1.75,0,3.5,0,5.25,0c0.055-3.195,1.254-5.246,0.75-9
		c-0.967-1.033-3.258-0.742-5.25-0.75C285.53,226.114,284.033,228.117,284.605,232.188z M277.855,229.938
		c2.5-0.5,4.072-1.928,3.75-5.25C277.668,219.963,273.137,227.62,277.855,229.938z M294.355,232.188c1.75,0,3.5,0,5.25,0
		c-0.589-3.839,1.052-5.448,0.75-9c-2,0-4,0-6,0C294.355,226.188,294.355,229.188,294.355,232.188z M432.355,229.188
		c2.435,0.435,3.488-0.511,5.25-0.75c-0.738-3.012-2.901-4.599-6.75-4.5C430.777,226.266,433.215,226.079,432.355,229.188z
		 M438.355,235.938c0-2,0-4,0-6c-2.479,1.021-2.235,4.765-6.75,3.75c1.625-5.892-7.722-5.324-3.75-9
		C411.499,228.602,429.741,248.466,438.355,235.938z M421.105,238.188c0.307,1.807-1.37,1.63-0.75,3.75
		c0.87,0.629,2.01,0.989,3.75,0.75c1.025-0.959,1.025-3.541,0-4.5C423.105,238.188,422.105,238.188,421.105,238.188z
		 M292.105,234.438c0.505,2.834,0.919,4.033-2.25,4.5c0.002-0.752-0.607-0.893-0.75-1.5c0.305-1.445,2.908-0.592,2.25-3
		c-5.354-0.813-4.562,4.905-3.75,8.25C295.731,247.27,299.939,235.979,292.105,234.438z M300.355,243.438c1.75,0,3.5,0,5.25,0
		c0-2.75,0-5.5,0-8.25c-1.5,0-3,0-4.5,0C299.715,236.799,300.599,240.683,300.355,243.438z M310.105,235.938c0,2.25,0,4.5,0,6.75
		c1.75,0,3.5,0,5.25,0c-0.4-2.6,1.114-7.114-1.5-7.5C313.981,236.815,311.195,235.528,310.105,235.938z M409.855,238.188
		c-3.636,5.882,8.232,7.261,6.75,0C413.745,240.348,411.473,236.971,409.855,238.188z M415.855,236.688
		c-1.326-0.659-2.19-2.377-3.75-0.75C411.383,238.695,415.789,238.92,415.855,236.688z M325.855,235.938
		c-1.472,3.701-0.478,0.544-3,0c-1.052,2.738-2.201,5.139,0,7.5c2.161-0.089,4.91,0.41,6-0.75
		C329.195,239.098,328.041,237.002,325.855,235.938z M389.605,237.438c-2.398,1.125-2.14,3.496-3.75,0c-1.884,1.365-1.884,4.635,0,6
		C389.841,243.849,391.13,240.406,389.605,237.438z M400.105,240.438c-2.945-8.286-7.497,4.995,1.5,3c0.587-0.521,1.669-4.185,0-4.5
		C401.446,239.78,400.772,240.106,400.105,240.438z"/>
	<path fill-rule="evenodd" clip-rule="evenodd" fill="#FFFFFF" d="M424.105,238.188c1.025,0.959,1.025,3.541,0,4.5
		c-1.74,0.239-2.88-0.121-3.75-0.75c-0.62-2.12,1.057-1.943,0.75-3.75C422.105,238.188,423.105,238.188,424.105,238.188z
		 M421.105,241.188c0.457,0.042,0.888,0.112,0.75,0.75c0.5,0,1,0,1.5,0c0.042-0.458,0.111-0.888,0.75-0.75c0-0.5,0-1,0-1.5
		c-0.458-0.042-0.889-0.112-0.75-0.75c-0.5,0-1,0-1.5,0c-0.043,0.458-0.112,0.888-0.75,0.75
		C421.105,240.188,421.105,240.688,421.105,241.188z"/>
	<path fill-rule="evenodd" clip-rule="evenodd" d="M432.355,225.438c0.592-1.725,2.623,1.291,3.75,1.5
		c-0.186,0.814-1.492,0.509-1.5,1.5C432.534,228.76,433.901,225.643,432.355,225.438z"/>
	<path fill-rule="evenodd" clip-rule="evenodd" fill="#FFFFFF" d="M287.605,242.688c-0.812-3.345-1.604-9.063,3.75-8.25
		c0.658,2.408-1.945,1.555-2.25,3c0.143,0.607,0.752,0.748,0.75,1.5c3.169-0.467,2.755-1.666,2.25-4.5
		C299.939,235.979,295.731,247.27,287.605,242.688z M287.605,238.188c0.034,9.761,13.017,0.351,6-0.75
		C294.959,238.772,288.793,241.086,287.605,238.188z"/>
	<path fill-rule="evenodd" clip-rule="evenodd" d="M293.605,237.438c7.017,1.101-5.966,10.511-6,0.75
		C288.793,241.086,294.959,238.772,293.605,237.438z"/>
	<path fill-rule="evenodd" clip-rule="evenodd" fill="#FFFFFF" d="M328.855,242.688c-1.09,1.16-3.839,0.661-6,0.75
		c-2.201-2.361-1.052-4.762,0-7.5c2.522,0.544,1.528,3.701,3,0C328.041,237.002,329.195,239.098,328.855,242.688z M322.855,240.438
		c-0.354,3.399,3.507,2.046,5.25,1.5c0.403-2.653-0.636-3.864-2.25-4.5c0.147,2.147,0.093,4.093-2.25,3.75
		c0.869-0.29,0.869-3.643,0-1.5C323.562,240.146,323.493,240.576,322.855,240.438z"/>
	<path fill-rule="evenodd" clip-rule="evenodd" d="M323.605,239.688c0.869-2.143,0.869,1.21,0,1.5
		c2.343,0.343,2.397-1.603,2.25-3.75c1.614,0.636,2.653,1.847,2.25,4.5c-1.743,0.546-5.604,1.899-5.25-1.5
		C323.493,240.576,323.562,240.146,323.605,239.688z"/>
	<path fill-rule="evenodd" clip-rule="evenodd" fill="#FFFFFF" d="M385.855,243.438c-1.884-1.365-1.884-4.635,0-6
		c1.61,3.496,1.352,1.125,3.75,0C391.13,240.406,389.841,243.849,385.855,243.438z"/>
	<path fill-rule="evenodd" clip-rule="evenodd" fill="#FFFFFF" d="M401.605,238.938c1.669,0.315,0.587,3.979,0,4.5
		c-8.997,1.995-4.446-11.286-1.5-3C400.772,240.106,401.446,239.78,401.605,238.938z"/>
	<path fill-rule="evenodd" clip-rule="evenodd" d="M275.605,280.188c2.248-8.475,11.376-15.911,22.5-16.5
		c39.688-2.1,36.361,56.457,1.5,56.25c-12.315-0.073-19.548-6.38-24.75-16.5c5.628,13.921,29.056,19.963,42,9
		c22.045-18.67-0.016-57.293-28.5-45C282.933,269.778,279.321,272.9,275.605,280.188z"/>
	<path fill-rule="evenodd" clip-rule="evenodd" fill="#FFFFFF" d="M283.105,268.938c15.397-11.654,38.596-3.944,44.25,12.75
		c7.792,23.004-15.471,49.137-41.25,36C266.88,307.892,268.041,280.34,283.105,268.938z M298.855,265.938
		c-32.653,0.364-32.485,51.936,0.75,51.75c23.989-0.134,33.82-32.331,15.75-46.5C310.619,267.475,304.183,265.879,298.855,265.938z
		 M288.355,267.438c28.484-12.293,50.545,26.33,28.5,45c-12.944,10.963-36.372,4.921-42-9c5.202,10.12,12.435,16.427,24.75,16.5
		c34.861,0.207,38.188-58.35-1.5-56.25c-11.124,0.589-20.252,8.025-22.5,16.5C279.321,272.9,282.933,269.778,288.355,267.438z
		 M271.855,290.688c-0.839,9.912,4.22-12.572,2.25-8.25C272.498,285.965,272,288.983,271.855,290.688z M274.855,301.938
		c-1.412-0.881-1.125-7.318-2.25-6C272.433,298.404,273.867,303.119,274.855,301.938z"/>
	<path fill-rule="evenodd" clip-rule="evenodd" d="M425.605,265.938c9.026,4.363,17.425,17.838,15,31.5
		c-4.394,24.753-37.828,27.463-50.25,11.25C373.013,286.056,398.558,252.864,425.605,265.938z M422.605,266.688
		c-39.145-11.933-49.248,54.679-6.75,51.75c7.562-0.521,14.624-3.969,19.5-11.25C445.699,291.741,435.678,270.673,422.605,266.688z"
		/>
	<path fill-rule="evenodd" clip-rule="evenodd" fill="#FFFFFF" d="M435.355,307.188c-4.876,7.281-11.938,10.729-19.5,11.25
		c-42.498,2.929-32.395-63.683,6.75-51.75C435.678,270.673,445.699,291.741,435.355,307.188z M438.355,297.438
		c7.084-40.361-55.187-40.152-49.5-0.75c2.347,16.261,29.65,30.244,44.25,12C435.669,305.484,437.783,300.694,438.355,297.438z"/>
	<path fill-rule="evenodd" clip-rule="evenodd" fill="#FFFFFF" d="M366.355,270.438c2.034,1.318,2.034,6.182,0,7.5
		C358.449,279.887,358.78,268.613,366.355,270.438z M367.105,273.438c-0.686-1.314-1.394-2.605-3.75-2.25
		c-0.166,0.584-0.628,0.872-1.5,0.75c0.008,1.992-0.283,4.283,0.75,5.25C365.664,277.498,367.337,276.42,367.105,273.438z"/>
	<path fill-rule="evenodd" clip-rule="evenodd" d="M274.105,282.438c1.97-4.322-3.089,18.162-2.25,8.25
		C272,288.983,272.498,285.965,274.105,282.438z"/>
	<path fill-rule="evenodd" clip-rule="evenodd" d="M272.605,295.938c1.125-1.318,0.838,5.119,2.25,6
		C273.867,303.119,272.433,298.404,272.605,295.938z"/>
	<path fill-rule="evenodd" clip-rule="evenodd" d="M277.105,315.438c0.643,2.393-1.18,2.319-1.5,3.75c-0.401-1.12-0.747-0.884-1.5-3
		c1.276-0.275,1.415,0.585,1.5,1.5c0.729-0.021,0.582-0.918,0.75-1.5c0.537-1.216-3.537-1.216-3,0
		C271.01,315.055,276.427,313.819,277.105,315.438z"/>
	<path fill-rule="evenodd" clip-rule="evenodd" fill="#FFFFFF" d="M412.105,235.938c1.56-1.627,2.424,0.091,3.75,0.75
		C415.789,238.92,411.383,238.695,412.105,235.938z"/>
	<path fill-rule="evenodd" clip-rule="evenodd" fill="#FFFFFF" d="M301.105,284.688c1.991,0.759,4.267,1.233,4.5,3.75
		c-1.5,0-3,0-4.5,0C301.105,287.188,301.105,285.938,301.105,284.688z"/>
	<path fill-rule="evenodd" clip-rule="evenodd" fill="#FFFFFF" d="M407.605,286.188c0.093-1.656,3.181-0.318,4.5-0.75
		c1.185,2.935-1.947,1.553-2.25,3C408.438,288.355,409.335,285.959,407.605,286.188z"/>
	<path fill-rule="evenodd" clip-rule="evenodd" fill="#FFFFFF" d="M351.355,297.438c1.739-0.239,2.879,0.121,3.75,0.75
		c0.343,2.343-1.603,2.397-3.75,2.25C351.355,299.438,351.355,298.438,351.355,297.438z"/>
	<path fill-rule="evenodd" clip-rule="evenodd" fill="#FFFFFF" d="M378.355,267.438c-0.395,11.054,1.114,26.484-1.5,33
		c-3.219,0.719-4.469-0.531-3.75-3.75c-13,0-26,0-39,0c-1.71-8.04-0.28-19.221-0.75-28.5c2.75,0,5.5,0,8.25,0
		c-0.227,5.227,1.258,8.742,1.5,13.5c8.5,0,17,0,25.5,0C371.479,276.562,367.551,264.635,378.355,267.438z M334.855,268.938
		c0,8.75,0,17.5,0,26.25c14.25,0,28.5,0,42.75,0c-0.964-8.285,1.952-20.452-1.5-26.25c-7.667-0.667-3.68,10.32-6.75,14.25
		c-9,0-18,0-27,0c-0.575-4.675-1.813-8.687-1.5-14.25C338.855,268.938,336.855,268.938,334.855,268.938z"/>
	<path fill-rule="evenodd" clip-rule="evenodd" fill="#FFFFFF" d="M371.605,298.188c-1.882,4.088-6.755,0.802-13.5,2.25
		c-0.397-0.603-0.783-1.218-0.75-2.25C362.822,296.354,364.917,299.449,371.605,298.188z"/>
	<path fill-rule="evenodd" clip-rule="evenodd" fill="#FFFFFF" d="M357.355,305.688c2.347,0.153,5.506-0.506,6.75,0.75
		c-0.454,1.796-1.078,3.422-0.75,6c-2,0-4,0-6,0C357.355,310.188,357.355,307.938,357.355,305.688z M362.605,311.688
		c0.718-2.718-3.237-0.763-3.75-2.25C357.905,312.388,360.624,311.669,362.605,311.688z"/>
	<path fill-rule="evenodd" clip-rule="evenodd" fill="#FFFFFF" d="M372.355,305.688c0.165,2.415-1.327,3.174-0.75,6
		c-1.77,0.573-5.183,1.479-6.75,0C364.409,306.742,367.058,304.892,372.355,305.688z M365.605,310.938c1.5,0,3,0,4.5,0
		c-0.117-0.883,0.129-2.129-0.75-2.25C369.486,310.819,364.448,307.782,365.605,310.938z"/>
	<path fill-rule="evenodd" clip-rule="evenodd" fill="#FFFFFF" d="M323.605,308.688c2.427,0.323,6.487-0.987,6.75,1.5
		c0.954,3.454-3.804,1.196-4.5,3c0.093,1.656,3.182,0.318,4.5,0.75c0,2.5,0,5,0,7.5c-2.25,0-4.5,0-6.75,0
		C323.605,317.188,323.605,312.938,323.605,308.688z M324.355,319.938c1.75,0,3.5,0,5.25,0c0-1.75,0-3.5,0-5.25
		c-1.75,0-3.5,0-5.25,0C324.355,316.438,324.355,318.188,324.355,319.938z"/>
	<path fill-rule="evenodd" clip-rule="evenodd" fill="#FFFFFF" d="M377.605,305.688c-1.302,2.499,0.378,3.327,0,6.75
		c-1.75,0-3.5,0-5.25,0c0-1.25,0-2.5,0-3.75c1,0,2,0,3,0c0.297-1.797-3.416,0.416-2.25-2.25
		C375.399,306.982,375.311,305.145,377.605,305.688z"/>
	<path fill-rule="evenodd" clip-rule="evenodd" d="M275.605,184.188c54.073,0.322,106.167-1.333,160.5-0.75
		c2.516,8.242,1.64,17.159,4.5,26.25c1.402,4.46,5.601,7.254,6.75,11.25c2.049,7.129,2.404,17.022,3,24.75
		c2.104,27.317-2.611,58.112-1.5,87.75c-29.165,2.025-62.902,3-96,3c-32.723,0-66.088,2.315-90.75-7.5
		c0.721-28.873-5.845-55.134-3.75-81.75 M430.105,192.438c-0.563-0.172-1.383,0.672-2.25,0.75
		c-41.279,3.701-105.734-3.395-148.5,0.75c-1.819,6.681-0.812,16.188-2.25,23.25c-0.217,2.783-5.688,0.312-6,3
		c-7.957,30.147-2.075,66.928-2.25,102c54.229,6.562,119.522,3.379,174.75,0c-0.485-35.26,4.939-70.066-0.75-102
		c-0.745-3.005-6.604-0.896-7.5-3.75C433.669,209.937,438.767,195.079,430.105,192.438z"/>
</g>
</svg>
